# xmcd
#
# Track frame offsets: 
#        150
#        15239
#        36095
#        53770
#        74972
#        93479
#        111018
#        130813
#        152634
#        173994
#        196560
#        211327
#        230965
#        248258
#        271235
#        287589
#        306428
#        322725
#
# Disc length: 4625 seconds
#
# Revision: 1
# Processed by: cddbd v1.5.2PL0 Copyright (c) Steve Scherf et al.
# Submitted via: ExactAudioCopy v0.99pb3
#
DISCID=f3120f12
DTITLE=Белый Орёл - The Best Of
DYEAR=2003
DGENRE=Chanson
TTITLE0=А в чистом поле...
TTITLE1=Без тебя
TTITLE2=С высоких гор
TTITLE3=Боже
TTITLE4=Как упоительны в России вечера
TTITLE5=На заре
TTITLE6=А я тебя помню
TTITLE7=Прости мои долги
TTITLE8=Потому что нельзя быть красивой такой
TTITLE9=Я тебя теряю
TTITLE10=Ссора не повод
TTITLE11=Я один и ты одна
TTITLE12=Ностальгия
TTITLE13=Я куплю тебе новую жизнь
TTITLE14=Без тебя не могу
TTITLE15=Я по тебе скучаю
TTITLE16=Дорогая пропажа
TTITLE17=Моя любовь воздушный шар
EXTD=
EXTT0=
EXTT1=
EXTT2=
EXTT3=
EXTT4=
EXTT5=
EXTT6=
EXTT7=
EXTT8=
EXTT9=
EXTT10=
EXTT11=
EXTT12=
EXTT13=
EXTT14=
EXTT15=
EXTT16=
EXTT17=
PLAYORDER=
